<mxfile host="app.diagrams.net" modified="2023-05-28T14:33:12.774Z" agent="Mozilla/5.0 (Windows NT 10.0; Win64; x64) AppleWebKit/537.36 (KHTML, like Gecko) Chrome/113.0.0.0 Safari/537.36" etag="n4PiT8PBrJ1U-2CjgX9k" version="21.3.5" type="device">
  <diagram name="Página-1" id="Na1I3I53zQXJvYhAjkSg">
    <mxGraphModel dx="1221" dy="1805" grid="1" gridSize="10" guides="1" tooltips="1" connect="1" arrows="1" fold="1" page="1" pageScale="1" pageWidth="827" pageHeight="1169" math="0" shadow="0">
      <root>
        <mxCell id="0" />
        <mxCell id="1" parent="0" />
        <mxCell id="_bAbe3wD1gjFAKtMg253-1" value="" style="endArrow=none;dashed=1;html=1;dashPattern=1 3;strokeWidth=2;rounded=0;" edge="1" parent="1">
          <mxGeometry width="50" height="50" relative="1" as="geometry">
            <mxPoint x="40" y="320" as="sourcePoint" />
            <mxPoint x="1560" y="320" as="targetPoint" />
          </mxGeometry>
        </mxCell>
        <mxCell id="_bAbe3wD1gjFAKtMg253-2" value="" style="endArrow=none;dashed=1;html=1;dashPattern=1 3;strokeWidth=2;rounded=0;" edge="1" parent="1">
          <mxGeometry width="50" height="50" relative="1" as="geometry">
            <mxPoint x="40" y="520" as="sourcePoint" />
            <mxPoint x="1560" y="520" as="targetPoint" />
          </mxGeometry>
        </mxCell>
        <mxCell id="_bAbe3wD1gjFAKtMg253-3" value="Desarrollo de Productos" style="text;html=1;strokeColor=none;fillColor=none;align=center;verticalAlign=middle;whiteSpace=wrap;rounded=0;rotation=-90;" vertex="1" parent="1">
          <mxGeometry x="-30" y="395" width="100" height="30" as="geometry" />
        </mxCell>
        <mxCell id="_bAbe3wD1gjFAKtMg253-6" style="edgeStyle=orthogonalEdgeStyle;rounded=0;orthogonalLoop=1;jettySize=auto;html=1;" edge="1" parent="1" source="_bAbe3wD1gjFAKtMg253-4" target="_bAbe3wD1gjFAKtMg253-5">
          <mxGeometry relative="1" as="geometry" />
        </mxCell>
        <mxCell id="_bAbe3wD1gjFAKtMg253-4" value="Diseñar producto" style="rounded=1;whiteSpace=wrap;html=1;" vertex="1" parent="1">
          <mxGeometry x="120" y="380" width="120" height="60" as="geometry" />
        </mxCell>
        <mxCell id="_bAbe3wD1gjFAKtMg253-15" style="edgeStyle=orthogonalEdgeStyle;rounded=0;orthogonalLoop=1;jettySize=auto;html=1;entryX=0.117;entryY=0.199;entryDx=0;entryDy=0;entryPerimeter=0;" edge="1" parent="1" source="_bAbe3wD1gjFAKtMg253-5" target="_bAbe3wD1gjFAKtMg253-12">
          <mxGeometry relative="1" as="geometry" />
        </mxCell>
        <mxCell id="_bAbe3wD1gjFAKtMg253-5" value="Desarrollar producto" style="rounded=1;whiteSpace=wrap;html=1;" vertex="1" parent="1">
          <mxGeometry x="294" y="380" width="120" height="60" as="geometry" />
        </mxCell>
        <mxCell id="_bAbe3wD1gjFAKtMg253-9" style="edgeStyle=orthogonalEdgeStyle;rounded=0;orthogonalLoop=1;jettySize=auto;html=1;entryX=0;entryY=0.5;entryDx=0;entryDy=0;" edge="1" parent="1" source="_bAbe3wD1gjFAKtMg253-7" target="_bAbe3wD1gjFAKtMg253-4">
          <mxGeometry relative="1" as="geometry">
            <Array as="points">
              <mxPoint x="80" y="410" />
              <mxPoint x="80" y="410" />
            </Array>
          </mxGeometry>
        </mxCell>
        <mxCell id="_bAbe3wD1gjFAKtMg253-11" style="edgeStyle=orthogonalEdgeStyle;rounded=0;orthogonalLoop=1;jettySize=auto;html=1;entryX=0;entryY=0.5;entryDx=0;entryDy=0;" edge="1" parent="1" source="_bAbe3wD1gjFAKtMg253-7" target="_bAbe3wD1gjFAKtMg253-10">
          <mxGeometry relative="1" as="geometry">
            <Array as="points">
              <mxPoint x="90" y="615" />
              <mxPoint x="90" y="615" />
            </Array>
          </mxGeometry>
        </mxCell>
        <mxCell id="_bAbe3wD1gjFAKtMg253-7" value="" style="rounded=0;whiteSpace=wrap;html=1;fillColor=#f5f5f5;fontColor=#333333;strokeColor=#666666;" vertex="1" parent="1">
          <mxGeometry x="60" y="340" width="20" height="350" as="geometry" />
        </mxCell>
        <mxCell id="_bAbe3wD1gjFAKtMg253-8" value="Marketing" style="text;html=1;strokeColor=none;fillColor=none;align=center;verticalAlign=middle;whiteSpace=wrap;rounded=0;rotation=-90;" vertex="1" parent="1">
          <mxGeometry x="-30" y="590" width="100" height="30" as="geometry" />
        </mxCell>
        <mxCell id="_bAbe3wD1gjFAKtMg253-14" style="edgeStyle=orthogonalEdgeStyle;rounded=0;orthogonalLoop=1;jettySize=auto;html=1;entryX=0.083;entryY=0.788;entryDx=0;entryDy=0;entryPerimeter=0;" edge="1" parent="1" source="_bAbe3wD1gjFAKtMg253-10" target="_bAbe3wD1gjFAKtMg253-12">
          <mxGeometry relative="1" as="geometry" />
        </mxCell>
        <mxCell id="_bAbe3wD1gjFAKtMg253-10" value="Crear estrategia" style="rounded=1;whiteSpace=wrap;html=1;" vertex="1" parent="1">
          <mxGeometry x="130" y="585" width="120" height="60" as="geometry" />
        </mxCell>
        <mxCell id="_bAbe3wD1gjFAKtMg253-26" style="edgeStyle=orthogonalEdgeStyle;rounded=0;orthogonalLoop=1;jettySize=auto;html=1;entryX=0;entryY=0.5;entryDx=0;entryDy=0;" edge="1" parent="1" source="_bAbe3wD1gjFAKtMg253-12" target="_bAbe3wD1gjFAKtMg253-18">
          <mxGeometry relative="1" as="geometry">
            <Array as="points">
              <mxPoint x="555" y="520" />
              <mxPoint x="555" y="85" />
            </Array>
          </mxGeometry>
        </mxCell>
        <mxCell id="_bAbe3wD1gjFAKtMg253-12" value="" style="rounded=0;whiteSpace=wrap;html=1;" vertex="1" parent="1">
          <mxGeometry x="500" y="340" width="20" height="350" as="geometry" />
        </mxCell>
        <mxCell id="_bAbe3wD1gjFAKtMg253-16" value="Produccion" style="text;html=1;strokeColor=none;fillColor=none;align=center;verticalAlign=middle;whiteSpace=wrap;rounded=0;rotation=-90;" vertex="1" parent="1">
          <mxGeometry x="-30" y="220" width="100" height="30" as="geometry" />
        </mxCell>
        <mxCell id="_bAbe3wD1gjFAKtMg253-33" style="edgeStyle=orthogonalEdgeStyle;rounded=0;orthogonalLoop=1;jettySize=auto;html=1;entryX=0;entryY=0.75;entryDx=0;entryDy=0;" edge="1" parent="1" source="_bAbe3wD1gjFAKtMg253-17" target="_bAbe3wD1gjFAKtMg253-32">
          <mxGeometry relative="1" as="geometry" />
        </mxCell>
        <mxCell id="_bAbe3wD1gjFAKtMg253-17" value="Fabricar producto" style="rounded=1;whiteSpace=wrap;html=1;" vertex="1" parent="1">
          <mxGeometry x="720" y="210" width="120" height="60" as="geometry" />
        </mxCell>
        <mxCell id="_bAbe3wD1gjFAKtMg253-24" style="edgeStyle=orthogonalEdgeStyle;rounded=0;orthogonalLoop=1;jettySize=auto;html=1;exitX=1;exitY=0.25;exitDx=0;exitDy=0;entryX=0;entryY=0.5;entryDx=0;entryDy=0;" edge="1" parent="1" source="_bAbe3wD1gjFAKtMg253-18" target="_bAbe3wD1gjFAKtMg253-22">
          <mxGeometry relative="1" as="geometry">
            <Array as="points">
              <mxPoint x="610" y="80" />
            </Array>
          </mxGeometry>
        </mxCell>
        <mxCell id="_bAbe3wD1gjFAKtMg253-25" style="edgeStyle=orthogonalEdgeStyle;rounded=0;orthogonalLoop=1;jettySize=auto;html=1;entryX=0;entryY=0.5;entryDx=0;entryDy=0;" edge="1" parent="1" source="_bAbe3wD1gjFAKtMg253-18" target="_bAbe3wD1gjFAKtMg253-17">
          <mxGeometry relative="1" as="geometry">
            <Array as="points">
              <mxPoint x="630" y="240" />
              <mxPoint x="630" y="240" />
            </Array>
          </mxGeometry>
        </mxCell>
        <mxCell id="_bAbe3wD1gjFAKtMg253-31" style="edgeStyle=orthogonalEdgeStyle;rounded=0;orthogonalLoop=1;jettySize=auto;html=1;entryX=0;entryY=0.5;entryDx=0;entryDy=0;" edge="1" parent="1" source="_bAbe3wD1gjFAKtMg253-18" target="_bAbe3wD1gjFAKtMg253-30">
          <mxGeometry relative="1" as="geometry">
            <Array as="points">
              <mxPoint x="640" y="-110" />
              <mxPoint x="640" y="-110" />
            </Array>
          </mxGeometry>
        </mxCell>
        <mxCell id="_bAbe3wD1gjFAKtMg253-18" value="" style="rounded=0;whiteSpace=wrap;html=1;fillColor=#f5f5f5;fontColor=#333333;strokeColor=#666666;" vertex="1" parent="1">
          <mxGeometry x="590" y="-180" width="20" height="530" as="geometry" />
        </mxCell>
        <mxCell id="_bAbe3wD1gjFAKtMg253-19" value="" style="endArrow=none;dashed=1;html=1;dashPattern=1 3;strokeWidth=2;rounded=0;" edge="1" parent="1">
          <mxGeometry width="50" height="50" relative="1" as="geometry">
            <mxPoint x="40" y="160" as="sourcePoint" />
            <mxPoint x="1560" y="160" as="targetPoint" />
          </mxGeometry>
        </mxCell>
        <mxCell id="_bAbe3wD1gjFAKtMg253-20" value="Ventas" style="text;html=1;strokeColor=none;fillColor=none;align=center;verticalAlign=middle;whiteSpace=wrap;rounded=0;rotation=-90;" vertex="1" parent="1">
          <mxGeometry x="-30" y="60" width="100" height="30" as="geometry" />
        </mxCell>
        <mxCell id="_bAbe3wD1gjFAKtMg253-34" style="edgeStyle=orthogonalEdgeStyle;rounded=0;orthogonalLoop=1;jettySize=auto;html=1;entryX=0;entryY=0.25;entryDx=0;entryDy=0;" edge="1" parent="1" source="_bAbe3wD1gjFAKtMg253-22" target="_bAbe3wD1gjFAKtMg253-32">
          <mxGeometry relative="1" as="geometry" />
        </mxCell>
        <mxCell id="_bAbe3wD1gjFAKtMg253-22" value="Establecer canales distribucion" style="rounded=1;whiteSpace=wrap;html=1;" vertex="1" parent="1">
          <mxGeometry x="720" y="50" width="120" height="60" as="geometry" />
        </mxCell>
        <mxCell id="_bAbe3wD1gjFAKtMg253-27" value="" style="endArrow=none;dashed=1;html=1;dashPattern=1 3;strokeWidth=2;rounded=0;" edge="1" parent="1">
          <mxGeometry width="50" height="50" relative="1" as="geometry">
            <mxPoint x="40" y="-1" as="sourcePoint" />
            <mxPoint x="1580" as="targetPoint" />
          </mxGeometry>
        </mxCell>
        <mxCell id="_bAbe3wD1gjFAKtMg253-29" value="Servicio al cliente" style="text;html=1;strokeColor=none;fillColor=none;align=center;verticalAlign=middle;whiteSpace=wrap;rounded=0;rotation=-90;" vertex="1" parent="1">
          <mxGeometry x="-20" y="-90" width="100" height="30" as="geometry" />
        </mxCell>
        <mxCell id="_bAbe3wD1gjFAKtMg253-39" style="edgeStyle=orthogonalEdgeStyle;rounded=0;orthogonalLoop=1;jettySize=auto;html=1;entryX=-0.183;entryY=0.057;entryDx=0;entryDy=0;entryPerimeter=0;" edge="1" parent="1" source="_bAbe3wD1gjFAKtMg253-30" target="_bAbe3wD1gjFAKtMg253-37">
          <mxGeometry relative="1" as="geometry" />
        </mxCell>
        <mxCell id="_bAbe3wD1gjFAKtMg253-30" value="Preparacion equipo" style="rounded=1;whiteSpace=wrap;html=1;" vertex="1" parent="1">
          <mxGeometry x="720" y="-140" width="120" height="60" as="geometry" />
        </mxCell>
        <mxCell id="_bAbe3wD1gjFAKtMg253-36" style="edgeStyle=orthogonalEdgeStyle;rounded=0;orthogonalLoop=1;jettySize=auto;html=1;entryX=0;entryY=0.5;entryDx=0;entryDy=0;" edge="1" parent="1" source="_bAbe3wD1gjFAKtMg253-32" target="_bAbe3wD1gjFAKtMg253-35">
          <mxGeometry relative="1" as="geometry">
            <Array as="points">
              <mxPoint x="930" y="160" />
              <mxPoint x="930" y="605" />
            </Array>
          </mxGeometry>
        </mxCell>
        <mxCell id="_bAbe3wD1gjFAKtMg253-32" value="" style="rounded=0;whiteSpace=wrap;html=1;" vertex="1" parent="1">
          <mxGeometry x="890" y="10" width="20" height="300" as="geometry" />
        </mxCell>
        <mxCell id="_bAbe3wD1gjFAKtMg253-38" style="edgeStyle=orthogonalEdgeStyle;rounded=0;orthogonalLoop=1;jettySize=auto;html=1;entryX=0.05;entryY=0.88;entryDx=0;entryDy=0;entryPerimeter=0;" edge="1" parent="1" source="_bAbe3wD1gjFAKtMg253-35" target="_bAbe3wD1gjFAKtMg253-37">
          <mxGeometry relative="1" as="geometry" />
        </mxCell>
        <mxCell id="_bAbe3wD1gjFAKtMg253-35" value="Estrategia Lanzamiento" style="rounded=1;whiteSpace=wrap;html=1;" vertex="1" parent="1">
          <mxGeometry x="950" y="575" width="120" height="60" as="geometry" />
        </mxCell>
        <mxCell id="_bAbe3wD1gjFAKtMg253-41" style="edgeStyle=orthogonalEdgeStyle;rounded=0;orthogonalLoop=1;jettySize=auto;html=1;entryX=0;entryY=0.5;entryDx=0;entryDy=0;" edge="1" parent="1" source="_bAbe3wD1gjFAKtMg253-37" target="_bAbe3wD1gjFAKtMg253-40">
          <mxGeometry relative="1" as="geometry">
            <Array as="points">
              <mxPoint x="1240" y="220" />
              <mxPoint x="1240" y="220" />
            </Array>
          </mxGeometry>
        </mxCell>
        <mxCell id="_bAbe3wD1gjFAKtMg253-37" value="" style="rounded=0;whiteSpace=wrap;html=1;" vertex="1" parent="1">
          <mxGeometry x="1150" y="-160" width="20" height="870" as="geometry" />
        </mxCell>
        <mxCell id="_bAbe3wD1gjFAKtMg253-40" value="" style="ellipse;whiteSpace=wrap;html=1;aspect=fixed;fillColor=#f8cecc;strokeColor=#b85450;" vertex="1" parent="1">
          <mxGeometry x="1390" y="190" width="60" height="60" as="geometry" />
        </mxCell>
      </root>
    </mxGraphModel>
  </diagram>
</mxfile>
